<?xml version="1.0" encoding="utf-8"?>
<!-- Generator: Adobe Illustrator 26.3.1, SVG Export Plug-In . SVG Version: 6.00 Build 0)  -->
<svg version="1.1"
		 fill="#1a140f"
		 id="_層_1"
		 xmlns="http://www.w3.org/2000/svg"
		 xmlns:xlink="http://www.w3.org/1999/xlink"
		 x="0px"
		 y="0px"
		 viewBox="0 0 53 53"
		 style="enable-background:new 0 0 53 53;"
		 xml:space="preserve">
	<g>
		<path
					d="M29.3,8.3v14c0,0-6.6,1.2-5.7,7.4s5.7,6.3,5.7,6.3v4.1c0,0-12.4-0.5-14.1-14.9C13.5,10.8,29.3,8.3,29.3,8.3z" />
		<path d="M16,13c0,0-5.5,2.9-5.5,5.9s0.8,3.4,1.4,3.3s0.7-0.1,1.3-3.1s3.3-5.4,3.3-5.4S17.5,12.5,16,13L16,13z" />
		<path
					d="M31.5,37.5c0,0-0.7-5,3.6-6.6s4,4.7,3.5,5.3s-1.9,1.6-1.2,3s2,2,0.9,4.7s-3.3,1.6-3.3,1.6S31.5,44.4,31.5,37.5z" />
		<path d="M31.5,8.3v13.8c0,0,9.8,0.7,10.8-2.5C43.3,16.5,40.7,9.8,31.5,8.3z M35.2,16.3c-0.6,0-1.1-0.5-1.1-1.1s0.5-1.1,1.1-1.1
		s1.1,0.5,1.1,1.1S35.8,16.3,35.2,16.3z" />
	</g>
</svg>
