<?xml version="1.0" encoding="utf-8"?>
<!-- Generator: Adobe Illustrator 26.3.1, SVG Export Plug-In . SVG Version: 6.00 Build 0)  -->
<svg version="1.1"
		 fill="#fae9be"
		 id="_層_1"
		 xmlns="http://www.w3.org/2000/svg"
		 xmlns:xlink="http://www.w3.org/1999/xlink"
		 x="0px"
		 y="0px"
		 viewBox="0 0 53 53"
		 style="enable-background:new 0 0 53 53;"
		 xml:space="preserve">
	<g>
		<rect x="6.2"
					y="16.2"
					transform="matrix(0.7071 -0.7071 0.7071 0.7071 -8.9608 14.8291)"
					width="14.5"
					height="4.2" />
		<rect x="37.5"
					y="11"
					transform="matrix(0.7071 -0.7071 0.7071 0.7071 -1.2879 33.3232)"
					width="4.2"
					height="14.5" />
		<path d="M27.6,26c0,0-2,2.3-4,3.6c-2,1.3-4.3-0.7-4.3-0.7l-2.9-2.7c0,0,7.1-6.8,6.9-7c-0.2-0.2-0.9,0-0.9,0l-1.7-1.6
		c0,0-7.4,7.4-7.8,7.7l1.4,1.8c0,0,0.4,3.6,0.7,3.7s1-2,3.6-1.2c2.6,0.8,10.6,10.1,10.6,10.1c0.6,0.6,1.5,0.7,2.2,0.1
		c0.3-0.3,0.5-0.7,0.5-1.1c0-0.2,0-0.3-0.1-0.5c0.6,0.2,1.3,0.1,1.7-0.4c0.3-0.3,0.4-0.7,0.4-1.1c0-0.2-0.1-0.4-0.1-0.5
		c0.6,0.3,1.3,0.1,1.8-0.4c0.3-0.3,0.4-0.7,0.4-1.1c0-0.4-0.5-1.1-0.5-1.1L27.6,26L27.6,26z" />
		<path d="M26,38.5c-0.3-0.3-0.7-0.5-1.1-0.5c-0.3,0-0.6,0.1-0.8,0.2c0.4-0.6,0.3-1.4-0.2-1.9c-0.3-0.3-0.7-0.5-1.1-0.5
		c-0.3,0-0.6,0.1-0.9,0.3c0.5-0.6,0.4-1.5-0.1-2c-0.3-0.3-0.7-0.5-1.1-0.5c-0.3,0-0.7,0.1-1,0.3c0.6-0.6,0.6-1.5,0-2.1
		c-0.3-0.3-0.7-0.5-1.1-0.5s-0.8,0.1-1.1,0.5l-2.7,2.6c-0.6,0.6-0.6,1.6,0,2.2c0.3,0.3,0.7,0.5,1.1,0.5c0.3,0,0.6-0.1,0.9-0.3
		c-0.5,0.6-0.5,1.5,0.1,2.1c0.3,0.3,0.7,0.5,1.1,0.5c0.3,0,0.7-0.1,0.9-0.3c-0.5,0.6-0.4,1.5,0.1,2c0.3,0.3,0.7,0.5,1.1,0.5
		c0.3,0,0.6-0.1,0.8-0.2c-0.4,0.6-0.3,1.4,0.2,1.9c0.3,0.3,0.7,0.5,1.1,0.5s0.8-0.2,1.1-0.5l2.7-2.6C26.6,40.1,26.6,39.1,26,38.5
		L26,38.5z" />
		<path d="M29.9,18.9c-2.5-0.2-3.6,0.8-3.6,0.8l-6.7,6.7c0,0,0.1,0.5,1.4,1c1.3,0.6,3.1-1.2,3.1-1.2l3.6-3.5c0,0,8.6,8.4,8.8,8.9
		c1,2.1,2-5.1,2-5.1l1.3-1.2l-8-8.1L29.9,18.9L29.9,18.9z" />
	</g>
</svg>
