<?xml version="1.0" encoding="utf-8"?>
<!-- Generator: Adobe Illustrator 26.3.1, SVG Export Plug-In . SVG Version: 6.00 Build 0)  -->
<svg version="1.1"
		 fill="#fae9be"
		 id="_層_1"
		 xmlns="http://www.w3.org/2000/svg"
		 xmlns:xlink="http://www.w3.org/1999/xlink"
		 x="0px"
		 y="0px"
		 viewBox="0 0 53 53"
		 style="enable-background:new 0 0 53 53;"
		 xml:space="preserve">
	<g>
		<path d="M26.5,9H22c-1,0-1.8,1.1-1.3,2l1.1,2.4c0.2,0.5,0.8,0.9,1.3,0.9h6.9c0.6,0,1.1-0.3,1.3-0.9l1.1-2.4c0.4-1-0.3-2-1.3-2H26.5
		L26.5,9z" />
		<path d="M28.1,16.6c0,0-0.8,0-1.5,0s-1.6,0-1.6,0c-3.9,0-13.3,7-13.3,17.2S26.5,44,26.5,44s14.9,0,14.9-10.2S32,16.8,28.1,16.6z
		 M31.7,30.6h-4.2v1.9h4.2v2.1h-4.2v4.5h-2.1v-4.5h-4.2v-2.1h4.2v-1.9h-4.2v-2.1h4.2V28l-3.8-3.8l1.5-1.5l3.3,3.3l3.3-3.3l1.5,1.5
		L27.6,28v0.5h4.2C31.7,28.5,31.7,30.6,31.7,30.6z" />
	</g>
</svg>
