<?xml version="1.0" encoding="utf-8"?>
<!-- Generator: Adobe Illustrator 26.3.1, SVG Export Plug-In . SVG Version: 6.00 Build 0)  -->
<svg version="1.1"
		 fill="#ccac57"
		 id="_層_1"
		 xmlns="http://www.w3.org/2000/svg"
		 xmlns:xlink="http://www.w3.org/1999/xlink"
		 x="0px"
		 y="0px"
		 viewBox="0 0 53 53"
		 style="enable-background:new 0 0 53 53;"
		 xml:space="preserve">
	<g>
		<path d="M43.9,18.6C42.3,15,39.5,12,36.1,10l0.8,7.5L43.9,18.6L43.9,18.6z" />
		<path d="M35,18.4l-1-9.5c-2.3-1-4.8-1.5-7.5-1.5c-0.7,0-1.4,0-2.1,0.1l-4.1,8.6c-0.2,0.3-0.5,0.5-0.9,0.6L10,17c-0.6,1-1,2-1.4,3.1
		l5.8,7.6c0.2,0.2,0.2,0.5,0.2,0.9l-2.7,10c1.1,1.4,2.5,2.6,4,3.6l10.4-3.8c0.1,0,0.2-0.1,0.3-0.1c0.2,0,0.4,0.1,0.6,0.2l7.1,5.4
		c1.3-0.6,2.6-1.3,3.7-2.2V31.1c0-0.3,0.2-0.6,0.4-0.8l7.2-5.1c-0.1-1.5-0.4-3-0.8-4.4l-8.9-1.5C35.4,19.2,35.1,18.8,35,18.4
		L35,18.4z M34.6,29.6L27.1,35c-0.2,0.1-0.4,0.2-0.6,0.2s-0.4-0.1-0.6-0.2l-7.5-5.5c-0.4-0.2-0.5-0.7-0.4-1.1l2.9-8.8
		c0.1-0.4,0.5-0.7,1-0.7h9.3c0.4,0,0.8,0.3,1,0.7l2.9,8.8C35.1,28.9,35,29.3,34.6,29.6z" />
		<path d="M22,7.9C17.6,9,13.9,11.5,11.3,15l7.5-0.3C18.8,14.8,22,8,22,7.9z" />
		<path d="M39.9,40.1c3.3-3.2,5.5-7.7,5.7-12.6l-5.7,4V40.1z" />
		<path d="M18,43.6c2.6,1.3,5.5,2,8.5,2c1.9,0,3.7-0.3,5.5-0.8l-5.6-4.3L18,43.6L18,43.6z" />
		<polygon points="22.6,20.9 20.2,28.4 26.5,33 32.9,28.4 30.4,20.9 	" />
		<path d="M7.8,22.5c-0.3,1.3-0.4,2.6-0.4,4c0,3.7,1.1,7.2,2.9,10.1l2.1-8C12.4,28.6,7.8,22.5,7.8,22.5z" />
	</g>
</svg>
