<?xml version="1.0"  encoding="UTF-8"?>
<svg id="_層_1"
		 fill="#fae9be"
		 xmlns="http://www.w3.org/2000/svg"
		 viewBox="0 0 53 53">
	<path
				d="M40.89,14.87l-2.77-2.77c-.51-.51-1.32-.51-1.83,0l-8.88,8.88c-.51,.51-1.32,.51-1.83,0l-8.88-8.88c-.51-.51-1.32-.51-1.83,0l-2.77,2.77c-.51,.51-.51,1.32,0,1.83l8.88,8.88c.51,.51,.51,1.32,0,1.83l-8.88,8.88c-.51,.51-.51,1.32,0,1.83l2.77,2.77c.51,.51,1.32,.51,1.83,0l8.88-8.88c.51-.51,1.32-.51,1.83,0l8.88,8.88c.51,.51,1.32,.51,1.83,0l2.77-2.77c.51-.51,.51-1.32,0-1.83l-8.88-8.88c-.51-.51-.51-1.32,0-1.83l8.88-8.88c.51-.51,.51-1.32,0-1.83Z" />
</svg>
