<?xml version="1.0" encoding="UTF-8"?>
<svg id="_層_1"
		 fill="#fae9be"
		 xmlns="http://www.w3.org/2000/svg"
		 viewBox="0 0 53 53">
	<path
				d="M45.89,23.62c-.22-.68-1.28-.69-1.85-.64-1.1-2.68-3.45-4.95-6.56-6.44-.28-1.09,.22-2.46,.55-3.46,.38-1.14-1.23-1.23-2.27,0s-4.33,1.74-4.61,1.71h0c-.71-.07-1.43-.11-2.17-.11-7.08,0-13.07,3.48-15.05,8.26h-3.15c-.34-.02-2.33-.09-3.38,1.15-.4,.47-.82,1.32-.49,2.7,.4,1.68,1.37,2.17,1.92,2.32,.19,.05,.39,.07,.58,.07,.7,0,1.4-.31,1.91-.85,.53-.57,.71-1.3,.48-1.95-.14-.39-.56-.59-.95-.45-.39,.14-.59,.56-.45,.95,.06,.18-.11,.39-.17,.45-.22,.24-.63,.45-1.02,.35-.52-.14-.75-.82-.84-1.22-.15-.62-.09-1.08,.17-1.39,.51-.61,1.74-.66,2.17-.63h2.76c-.14,.64-.22,1.29-.22,1.95,0,3.71,2.32,7.01,5.94,9.15-.5,1.23-1.37,3.78-.37,4.63,1.33,1.14,3.72,.48,4.26,0s.37-2.83,.37-2.83c1.72,.48,3.59,.75,5.54,.75,1.17,0,2.32-.1,3.42-.28,.46,1.14,1.42,2.89,2.89,2.87,2.18-.03,2.56-.95,2.27-1.91-.15-.5-.7-1.34-1.2-2.05,3.58-1.42,6.33-3.83,7.6-6.74,.47,.24,1.08,.42,1.6,.13,1.02-.57,.64-5.54,.33-6.49Zm-12.76-5.57c-.05,.41-.42,.7-.84,.64-4.43-.59-8.43,.45-8.47,.46-.06,.02-.13,.02-.19,.02-.33,0-.63-.22-.72-.55-.1-.4,.13-.8,.53-.91,.17-.05,4.32-1.12,9.05-.49,.41,.05,.69,.43,.64,.84Zm4.41,5.66c-.52,0-.94-.42-.94-.94s.42-.94,.94-.94,.94,.42,.94,.94-.42,.94-.94,.94Z" />
</svg>
