<?xml version="1.0" encoding="UTF-8"?>
<svg id="_層_1"
		 fill="#fae9be"
		 xmlns="http://www.w3.org/2000/svg"
		 viewBox="0 0 53 53">
	<path
				d="M35.69,17.01c-2.74-.58-4.23,1.64-4.23,1.64h-3.46v-7.43c0-.82-.67-1.49-1.49-1.49s-1.49,.67-1.49,1.49v7.43h-3.46s-1.49-2.21-4.23-1.64c-2.74,.58-11.07,6.59-11.02,20.4,.05,13.81,11.64-1.06,11.64-1.06h17.13s11.59,14.87,11.64,1.06c.05-13.81-8.28-19.82-11.02-20.4Zm-13.3,10.58h-3.46v3.46h-2.17v-3.46h-3.46v-2.17h3.46v-3.46h2.17v3.46h3.46v2.17Zm9.53,3.67c-1.2,0-2.16-.97-2.16-2.16s.97-2.16,2.16-2.16,2.16,.97,2.16,2.16-.97,2.16-2.16,2.16Zm4.33-5.41c-1.2,0-2.16-.97-2.16-2.16s.97-2.16,2.16-2.16,2.16,.97,2.16,2.16-.97,2.16-2.16,2.16Z" />
</svg>
