<?xml version="1.0" encoding="utf-8"?>
<!-- Generator: Adobe Illustrator 26.3.1, SVG Export Plug-In . SVG Version: 6.00 Build 0)  -->
<svg version="1.1"
		 fill="#fae9be"
		 id="_層_1"
		 xmlns="http://www.w3.org/2000/svg"
		 xmlns:xlink="http://www.w3.org/1999/xlink"
		 x="0px"
		 y="0px"
		 viewBox="0 0 53 53"
		 style="enable-background:new 0 0 53 53;"
		 xml:space="preserve">
	<g>
		<path d="M23,28.2H11.7c-0.7,0-1.2,0.6-1.2,1.2V42c0,0.7,0.6,1.2,1.2,1.2H23c0.7,0,1.2-0.6,1.2-1.2V29.4
		C24.2,28.7,23.7,28.2,23,28.2z" />
		<path d="M41.3,28.2H30c-0.7,0-1.2,0.6-1.2,1.2V42c0,0.7,0.6,1.2,1.2,1.2h11.3c0.7,0,1.2-0.6,1.2-1.2V29.4
		C42.6,28.7,42,28.2,41.3,28.2z" />
		<path d="M42.9,18.6H35c0.9-0.8,1.8-1.8,2.2-3.2c0.4-1.4,0-2.9-1.1-4.3c-1-1.3-2-1.4-2.7-1.3c-2.9,0.3-5.7,5.6-6.8,7.9
		c-1.1-2.3-3.9-7.6-6.8-7.9c-0.7-0.1-1.8,0.1-2.7,1.3c-1.1,1.4-1.4,2.9-1.1,4.3c0.3,1.4,1.3,2.4,2.2,3.2h-7.9
		c-0.7,0-1.2,0.5-1.2,1.2v4.2c0,0.7,0.6,1.2,1.2,1.2H23c0.7,0,1.2-0.5,1.2-1.2v-2.7c0-0.7,0.5-1.2,1.2-1.2h2.1
		c0.7,0,1.2,0.5,1.2,1.2v2.7c0,0.7,0.5,1.2,1.2,1.2h12.8c0.7,0,1.2-0.5,1.2-1.2v-4.2C44.1,19.2,43.5,18.6,42.9,18.6z M33.5,11.5
		c0.3,0,0.7,0,1.2,0.7c0.8,1,1,1.9,0.8,2.9c-0.4,1.7-2.4,2.9-3,3.2h-4.4C29.5,15.4,31.9,11.7,33.5,11.5z M18.3,12.2
		c0.5-0.7,0.9-0.7,1.2-0.7c1.7,0.2,4,3.9,5.4,6.8h-4.4c-0.6-0.3-2.6-1.5-3-3.2C17.3,14.1,17.5,13.2,18.3,12.2z" />
	</g>
</svg>
