<?xml version="1.0" encoding="utf-8"?>
<!-- Generator: Adobe Illustrator 26.3.1, SVG Export Plug-In . SVG Version: 6.00 Build 0)  -->
<svg version="1.1"
		 fill="#1a140f"
		 id="_層_1"
		 xmlns="http://www.w3.org/2000/svg"
		 xmlns:xlink="http://www.w3.org/1999/xlink"
		 x="0px"
		 y="0px"
		 viewBox="0 0 53 53"
		 style="enable-background:new 0 0 53 53;"
		 xml:space="preserve">
	<g>
		<circle cx="26.7"
						cy="12.9"
						r="4" />
		<path
					d="M29.7,18.2h-6c0,0-1.8,0.1-1.8,2v8.5h1v-8h1.4v6h4.8v-6h1.4v8h1v-8.5C31.5,18.3,29.7,18.2,29.7,18.2L29.7,18.2z" />
		<rect x="24.3"
					y="27.6"
					width="4.8"
					height="1.1" />
		<path d="M42,19.4c0.1-0.2,0.1-0.5,0.1-0.8c0-1.3-1.1-2.4-2.4-2.4s-2.4,1.1-2.4,2.4c0,0.3,0,0.5,0.1,0.8c-1.3,0-2.3,1.1-2.3,2.4
		s1.1,2.4,2.4,2.4c0.6,0,1.2-0.2,1.6-0.6l-0.5,1.8h2.2l-0.5-1.8c0.4,0.4,1,0.6,1.6,0.6c1.3,0,2.4-1.1,2.4-2.4S43.3,19.5,42,19.4
		L42,19.4L42,19.4z" />
		<path d="M16,16.2c-1.2,0-1.9,0.6-2.2,1.1c-0.3-0.5-1-1.1-2.2-1.1c-1.4,0-3,1-3,3.1c0,0.8,0.2,1.5,0.6,2.2c0.4,0.7,1.3,1.6,2.6,2.6
		c0.5,0.4,1,0.7,1.3,0.9c0.6,0.4,0.6,0.4,0.7,0.4h0c0.1,0,0.1,0,0.7-0.4c0.3-0.2,0.8-0.5,1.3-0.9c1.3-1,2.2-1.9,2.6-2.6
		c0.4-0.7,0.6-1.4,0.6-2.2C19.1,17.2,17.5,16.2,16,16.2L16,16.2z" />
		<g>
			<path d="M37.3,29.9H26.8v3.4h12.5v6.9H13.7v-6.9h12.5v-3.4H15.7c-3.9,0-7.1,3.2-7.1,7.1l0,0c0,3.9,3.2,7.1,7.1,7.1h21.5
			c3.9,0,7.1-3.2,7.1-7.1l0,0C44.3,33.1,41.2,29.9,37.3,29.9L37.3,29.9z M38.5,31.6h-9.2v-0.7h9.2V31.6z M14.5,30.9h9.2v0.7h-9.2
			V30.9z M39.3,42.6H13.7v-1.4h25.7L39.3,42.6L39.3,42.6z" />
			<rect x="33.1"
						y="34"
						width="5.6"
						height="5.6" />
			<rect x="14.4"
						y="34"
						width="5.6"
						height="5.6" />
			<polygon points="26.8,35.9 26.8,39.5 32.4,39.5 32.4,34 26.8,34 		" />
			<polygon points="26.2,35.9 26.2,39.5 20.6,39.5 20.6,34 26.2,34 		" />
		</g>
	</g>
</svg>
