<?xml version="1.0" encoding="utf-8"?>
<!-- Generator: Adobe Illustrator 26.3.1, SVG Export Plug-In . SVG Version: 6.00 Build 0)  -->
<svg version="1.1"
		 fill="#ccac57"
		 id="_層_1"
		 xmlns="http://www.w3.org/2000/svg"
		 xmlns:xlink="http://www.w3.org/1999/xlink"
		 x="0px"
		 y="0px"
		 viewBox="0 0 53 53"
		 style="enable-background:new 0 0 53 53;"
		 xml:space="preserve">
	<g>
		<polygon
						 points="26.5,20.1 24.4,24.3 19.7,25 23.1,28.3 22.3,32.9 26.5,30.7 30.7,32.9 29.9,28.3 33.3,25 28.6,24.3 	" />
		<path d="M44.7,22.5c0.3,0,0.6-0.3,0.6-0.7v-8.6c0-0.4-0.3-0.7-0.7-0.7H8.4c-0.4,0-0.7,0.3-0.7,0.7v8.6c0,0.4,0.3,0.6,0.6,0.7
		c1.2,0.1,3.9,0.6,3.9,4s-2.7,3.9-3.9,4c-0.4,0-0.6,0.3-0.6,0.7v8.6c0,0.4,0.3,0.7,0.7,0.7h36.2c0.4,0,0.7-0.3,0.7-0.7v-8.6
		c0-0.4-0.3-0.6-0.6-0.7c-1.2-0.1-3.9-0.6-3.9-4S43.4,22.6,44.7,22.5L44.7,22.5z M34.1,25.8l-3,2.9l0.7,4.1c0.1,0.4-0.1,0.9-0.5,1.1
		c-0.2,0.1-0.4,0.2-0.7,0.2c-0.2,0-0.4,0-0.5-0.1L26.5,32L22.9,34c-0.2,0.1-0.4,0.1-0.5,0.1c-0.2,0-0.5-0.1-0.7-0.2
		c-0.4-0.3-0.5-0.7-0.5-1.1l0.7-4.1l-3-2.9c-0.3-0.3-0.4-0.8-0.3-1.2s0.5-0.7,0.9-0.8l4.1-0.6l1.8-3.7c0.2-0.4,0.6-0.6,1-0.6l0,0
		c0.4,0,0.8,0.2,1,0.6l1.8,3.7l4.1,0.6c0.4,0.1,0.8,0.4,0.9,0.8C34.5,25,34.4,25.5,34.1,25.8z" />
	</g>
</svg>
