<?xml version="1.0" encoding="utf-8"?>
<!-- Generator: Adobe Illustrator 26.3.1, SVG Export Plug-In . SVG Version: 6.00 Build 0)  -->
<svg version="1.1"
		 fill="#fae9be"
		 id="_層_1"
		 xmlns="http://www.w3.org/2000/svg"
		 xmlns:xlink="http://www.w3.org/1999/xlink"
		 x="0px"
		 y="0px"
		 viewBox="0 0 53 53"
		 style="enable-background:new 0 0 53 53;"
		 xml:space="preserve">
	<g>
		<path d="M13.2,11.9c-2.1,2.7-2.9,5.6-1.5,11.4s8.9,12.4,8.9,12.4s6.4,7.5,14.1,5.6s7.2-3.7,7.2-3.7s-6.9-5.2-8.2-5.2
		s-2.5,1.2-4.7,0.8s-8.4-6.9-8.4-6.9s-2-1.3-1.2-5.7S15.3,9.2,13.2,11.9L13.2,11.9z" />
		<path d="M34.9,27.4c-0.1,0-0.2,0-0.2,0c-0.5-0.1-0.7-0.6-0.6-1.1c0-0.1,0.7-3-2.2-6.2c-2.9-3.2-5.8-2.9-5.9-2.9
		c-0.5,0.1-0.9-0.3-1-0.7c-0.1-0.5,0.3-0.9,0.7-1c0.2,0,3.9-0.5,7.5,3.4c3.5,4,2.6,7.6,2.5,7.8C35.6,27.2,35.2,27.4,34.9,27.4
		L34.9,27.4z" />
		<path d="M30.2,27.4c-0.1,0-0.1,0-0.2,0c-0.5-0.1-0.7-0.6-0.6-1c0-0.1,0.3-1.3-1-2.8c-1.3-1.4-2.6-1.3-2.6-1.3c-0.5,0-0.9-0.3-1-0.8
		s0.3-0.9,0.7-1c0.1,0,2.2-0.3,4.1,1.9s1.4,4.2,1.4,4.3C30.9,27.1,30.6,27.4,30.2,27.4L30.2,27.4z" />
		<path d="M39.8,28.2c-0.1,0-0.2,0-0.2,0c-0.5-0.1-0.7-0.6-0.6-1.1l0,0c0-0.2,1.2-4.9-3.5-10.2s-9.5-4.7-9.7-4.7
		c-0.5,0.1-0.9-0.3-1-0.7c-0.1-0.5,0.3-0.9,0.7-1c0.2,0,5.9-0.8,11.3,5.2s4,11.6,3.9,11.8C40.6,27.9,40.2,28.2,39.8,28.2L39.8,28.2z
		" />
	</g>
</svg>
