<?xml version="1.0" encoding="utf-8"?>
<!-- Generator: Adobe Illustrator 26.3.1, SVG Export Plug-In . SVG Version: 6.00 Build 0)  -->
<svg version="1.1"
		 fill="#1a140f"
		 id="_層_1"
		 xmlns="http://www.w3.org/2000/svg"
		 xmlns:xlink="http://www.w3.org/1999/xlink"
		 x="0px"
		 y="0px"
		 viewBox="0 0 53 53"
		 style="enable-background:new 0 0 53 53;"
		 xml:space="preserve">
	<g>
		<path d="M36.7,15.5v23.4c0,0.4-0.3,0.7-0.7,0.7H18.1c-0.4,0-0.7,0.3-0.7,0.7v3.1c0,0.4,0.3,0.7,0.7,0.7h22.3c0.4,0,0.7-0.3,0.7-0.7
		V15.5c0-0.4-0.3-0.7-0.7-0.7h-3.1C37,14.8,36.7,15.2,36.7,15.5z" />
		<path d="M34.8,9H12.5c-0.4,0-0.7,0.3-0.7,0.7v28c0,0.4,0.3,0.7,0.7,0.7h22.3c0.4,0,0.7-0.3,0.7-0.7v-28C35.5,9.3,35.2,9,34.8,9
		L34.8,9z M26.6,29.3c-0.9,0-1.5-0.2-2-0.5l0.5,2h-2.9l0.5-2c-0.5,0.3-1.1,0.5-2,0.5c-1.9,0-4-1.3-4-4.1c0-1.1,0.2-2,0.8-3
		c0.6-0.9,1.7-2.1,3.5-3.4c0.7-0.5,1.3-1,1.7-1.2c0.8-0.5,0.8-0.5,0.9-0.5s0.1,0,0.9,0.5c0.4,0.3,1,0.7,1.7,1.2
		c1.8,1.3,2.9,2.5,3.5,3.4c0.6,1,0.8,1.9,0.8,3C30.6,28,28.6,29.3,26.6,29.3L26.6,29.3z" />
	</g>
</svg>
