<?xml version="1.0" encoding="utf-8"?>
<!-- Generator: Adobe Illustrator 26.3.1, SVG Export Plug-In . SVG Version: 6.00 Build 0)  -->
<svg version="1.1"
		 fill="#1a140f"
		 id="_層_1"
		 xmlns="http://www.w3.org/2000/svg"
		 xmlns:xlink="http://www.w3.org/1999/xlink"
		 x="0px"
		 y="0px"
		 viewBox="0 0 53 53"
		 style="enable-background:new 0 0 53 53;"
		 xml:space="preserve">
	<g>
		<path d="M37.2,12.1H15.8c-5.2,0-9.5,4.3-9.5,9.5l0,0c0,5.2,4.3,9.5,9.5,9.5h21.4c5.2,0,9.5-4.3,9.5-9.5l0,0
		C46.7,16.3,42.5,12.1,37.2,12.1L37.2,12.1z M21.5,22.7h-2.8v2.8h-2.3v-2.8h-2.8v-2.3h2.8v-2.8h2.3v2.8h2.8V22.7z M33.4,22.9
		c-0.7,0-1.3-0.6-1.3-1.3s0.6-1.3,1.3-1.3s1.3,0.6,1.3,1.3S34.1,22.9,33.4,22.9z M36.4,25.8c-0.7,0-1.3-0.6-1.3-1.3s0.6-1.3,1.3-1.3
		s1.3,0.6,1.3,1.3S37.1,25.8,36.4,25.8z M36.4,19.9c-0.7,0-1.3-0.6-1.3-1.3s0.6-1.3,1.3-1.3s1.3,0.6,1.3,1.3S37.1,19.9,36.4,19.9z
		 M39.3,22.9c-0.7,0-1.3-0.6-1.3-1.3s0.6-1.3,1.3-1.3s1.3,0.6,1.3,1.3S40,22.9,39.3,22.9z" />
		<g>
			<path d="M6.7,27.9c0,0-2.2,13,2.7,13s10.8-7.4,10.8-7.4S8.3,34.1,6.7,27.9z" />
			<path d="M46.3,27.9c0,0,2.2,13-2.7,13s-10.8-7.4-10.8-7.4S44.7,34.1,46.3,27.9z" />
		</g>
	</g>
</svg>
