<?xml version="1.0" encoding="utf-8"?>
<!-- Generator: Adobe Illustrator 26.3.1, SVG Export Plug-In . SVG Version: 6.00 Build 0)  -->
<svg version="1.1"
		 fill="#241d17"
		 id="_層_1"
		 xmlns="http://www.w3.org/2000/svg"
		 xmlns:xlink="http://www.w3.org/1999/xlink"
		 x="0px"
		 y="0px"
		 viewBox="0 0 53 53"
		 style="enable-background:new 0 0 53 53;"
		 xml:space="preserve">
	<g>
		<path d="M18,19.4h-6.1c-0.7,0-1.2,0.6-1.2,1.2v11.7c0,0.7,0.6,1.2,1.2,1.2H18c0.3,0,0.6,0.1,0.8,0.3l8.5,6.8c0.8,0.7,2,0.1,2-1
		V13.3c0-1.1-1.2-1.6-2-1l-8.5,6.8C18.6,19.3,18.3,19.4,18,19.4z" />
		<path
					d="M34.2,34.8c-0.3,0-0.6-0.2-0.8-0.4c-0.3-0.4-0.2-1,0.3-1.3c0.1-0.1,2.8-1.9,2.8-6.7s-2.7-6.6-2.8-6.7
		c-0.4-0.3-0.5-0.9-0.3-1.3c0.3-0.4,0.9-0.6,1.3-0.3c0.2,0.1,3.6,2.5,3.6,8.3s-3.5,8.2-3.6,8.3C34.6,34.7,34.4,34.8,34.2,34.8z" />
		<path d="M37.4,39c-0.3,0-0.6-0.2-0.8-0.4c-0.3-0.4-0.2-1,0.3-1.3c0.2-0.1,4.6-3.2,4.6-10.9s-4.5-10.9-4.6-10.9
		c-0.4-0.3-0.6-0.9-0.3-1.3s0.9-0.6,1.3-0.3c0.2,0.1,5.4,3.7,5.4,12.5s-5.2,12.4-5.4,12.5C37.7,39,37.6,39,37.4,39z" />
	</g>
</svg>
